# This file uses centimeters as units for non-parametric coordinates.

g default
v -4.559216 12.742405 -0.571814
v -4.536736 12.736387 -0.570747
v -4.538794 12.724600 -0.572186
v -4.521539 12.717059 -0.570937
v 4.031676 5.691854 -6.697062
v 5.811818 19.732519 -5.087959
v -4.551743 8.564863 5.600472
v -2.078873 11.730268 -4.208562
v 6.587914 11.100883 8.615042
v -1.097984 6.465673 -6.537671
v -0.779291 18.691673 3.824401
v 2.476267 0.280990 9.559425
v 9.364262 12.936779 -1.224138
v 0.529614 15.293134 -6.501257
v 7.315856 1.486194 -2.818532
v 1.174875 15.147196 6.619996
v -0.972231 0.970771 7.690431
v 7.749744 1.053590 1.868839
v -3.494494 10.910506 7.698834
v -1.373751 22.780695 -1.015432
v 5.034892 13.226964 -6.788759
v 0.482103 18.783552 -3.351605
v -3.797066 0.249817 0.547258
v 7.154967 22.087101 -1.280228
v -4.463935 11.456608 -1.084515
v 9.381320 6.938303 8.228814
v 10.698277 4.385078 2.597949
v 8.656743 16.284254 6.788430
v -3.901245 9.261741 3.141624
v 3.298312 0.136241 5.461559
v 8.804053 14.948034 -4.933036
v -1.956138 16.435627 3.306754
v 2.860876 0.194152 -5.839787
v 4.178564 22.763401 -1.377533
v 10.024501 12.529235 6.899198
v 7.383546 7.945981 -4.517423
v 8.825509 20.312757 3.699919
v 6.430560 0.370958 -0.726655
v 9.897907 13.669407 2.549042
v -4.504413 1.647550 -1.129475
v 5.185744 19.270077 6.131328
v 8.353442 6.832693 -1.901499
v 0.909655 10.928837 9.362790
v 10.698236 9.401453 1.476791
v -4.063680 16.602266 -1.297775
v -3.043437 6.516739 9.291890
v 6.837260 12.324452 -4.672829
v -0.174065 22.454554 1.966675
v -4.381238 7.087338 7.174308
v 9.612004 4.894854 0.243291
v 8.525826 17.403378 -5.043979
v -4.578391 8.463881 1.097326
v 6.280790 16.963125 -6.888551
v 5.396377 2.228592 -4.882213
v -3.457912 19.276190 1.453766
v 0.121876 0.280547 -5.760828
v 3.838484 3.589305 9.151982
v -3.620738 6.802006 -4.419923
v 3.288605 13.970139 7.857998
v 6.759247 22.859571 1.007144
v 8.466854 1.182113 4.521177
v 0.237802 12.917602 8.270498
v -3.047513 20.557907 0.057002
v 8.818082 2.634145 6.098257
v 8.483087 3.193447 -3.925230
v -2.641888 17.839893 -3.517269
v -4.363366 0.546995 1.585237
v 3.034863 18.870846 6.407901
v 8.927814 5.016387 -2.428393
v 8.872516 15.331810 -2.980755
v 0.720933 22.853552 0.519382
v 1.303140 13.963002 -6.740992
v 3.099046 0.190483 -3.071369
v -3.185590 11.717847 2.868457
v 8.407890 11.254745 -2.071707
v 4.208368 7.958589 9.783715
v 1.053487 22.320349 -1.192223
v -4.591202 7.855687 -2.207876
v 9.862282 9.699901 -0.672535
v 5.028724 3.563856 7.246984
v 6.768739 6.487495 -5.782692
v 0.707610 20.013723 4.312448
v -2.408774 9.961021 9.558498
v 5.997427 6.840023 8.813938
v 4.484994 9.611891 -6.539403
v 8.316891 21.951927 0.632173
v -4.372664 15.924208 -0.101831
v -4.059814 4.443678 -2.448650
v 9.469160 8.896911 8.631270
v 6.790263 8.951178 -3.224950
v -0.931308 11.827404 6.137850
v 5.731807 20.960905 4.156792
v 2.161279 1.125789 -6.575435
v 7.474813 19.465340 -4.663102
v 5.160036 0.929563 5.868459
v -2.310778 21.301123 2.168747
v 10.636507 11.627120 3.072353
v -3.581439 11.190437 -2.638052
v 2.630897 21.992714 1.960918
vt 0.219465 0.437128
vt 0.219538 0.437795
vt 0.219499 0.437564
vt 0.219420 0.437162
vt 0.298761 0.373340
vt 0.195676 0.505526
vt 0.221233 0.405802
vt 0.695621 0.501618
vt 0.766674 0.532856
vt 0.695355 0.576230
vt 0.129228 0.370477
vt 0.000997 0.380359
vt 0.139914 0.214035
vt 0.510241 0.574015
vt 0.368439 0.674250
vt 0.428689 0.586656
vt 0.591413 0.684831
vt 0.663387 0.763053
vt 0.551541 0.856728
vt 0.737175 0.591295
vt 0.721371 0.622132
vt 0.812645 0.459498
vt 0.632125 0.375871
vt 0.442545 0.211542
vt 0.267590 0.616586
vt 0.270513 0.559149
vt 0.370678 0.580240
vt 0.588826 0.880187
vt 0.580981 0.425218
vt 0.512719 0.375004
vt 0.513727 0.512987
vt 0.442901 0.434833
vt 0.497949 0.784863
vt 0.498180 0.679190
vt 0.578359 0.552027
vt 0.628336 0.507534
vt 0.661533 0.557806
vt 0.007056 0.424311
vt 0.023247 0.559461
vt 0.719444 0.828292
vt 0.693497 0.693381
vt 0.737792 0.738729
vt 0.694409 0.775371
vt 0.742682 0.493005
vt 0.802420 0.637312
vt 0.821442 0.719878
vt 0.301585 0.461404
vt 0.442983 0.515108
vt 0.408861 0.417945
vt 0.372224 0.422706
vt 0.428444 0.240268
vt 0.369262 0.501984
vt 0.394323 0.467896
vt 0.561743 0.466048
vt 0.589876 0.468257
vt 0.421804 0.473254
vt 0.063017 0.683509
vt 0.158526 0.599936
vt 0.097252 0.518418
vt 0.164927 0.509260
vt 0.244533 0.319852
vt 0.240342 0.054837
vt 0.287589 0.248741
vt 0.137401 0.724583
vt 0.393274 0.803891
vt 0.531295 0.906345
vt 0.405292 0.715003
vt 0.209843 0.269423
vt 0.548534 0.519027
vt 0.604329 0.649475
vt 0.547753 0.627552
vt 0.560583 0.571481
vt 0.323901 0.416214
vt 0.652733 0.496557
vt 0.629973 0.432751
vt 0.678753 0.809826
vt 0.195769 0.584577
vt 0.192538 0.632784
vt 0.278872 0.663554
vt 0.184213 0.688626
vt 0.169385 0.033948
vt 0.824773 0.540107
vt 0.116090 0.650652
vt 0.177143 0.003335
vt 0.657491 0.708760
vt 0.642276 0.632179
vt 0.672710 0.654046
vt 0.363268 0.219560
vt 0.237968 0.753121
vt 0.405436 0.530432
vt 0.184664 0.380868
vt 0.738854 0.668968
vt 0.766745 0.655303
vt 0.661852 0.846162
vt 0.768872 0.569269
vt 0.996104 0.698097
vt 0.826347 0.895286
vt 0.736125 0.971389
vt 0.595688 0.998560
vt 0.514901 0.962946
vt 0.869178 0.633688
vt 0.924714 0.507890
vt 0.823525 0.324062
vt 0.677496 0.870314
vt 0.868550 0.423923
vt 0.840678 0.855982
vt 0.630517 0.992040
vt 0.604575 0.935185
vt 0.778249 0.785950
vt 0.883113 0.476054
vn 0.075869 0.107735 -0.991281
vn -0.996871 0.039811 0.068285
vn 0.115500 0.082853 -0.989846
vn -0.075869 -0.107736 0.991280
vn -0.972783 0.029309 -0.229856
vn -0.997643 0.015361 0.066882
vn -0.934921 0.114497 0.335878
vn -0.954228 0.058007 -0.293400
vn 0.793992 -0.579676 -0.183175
vn 0.659568 -0.687782 -0.303192
vn 0.880284 -0.307434 -0.361365
vn -0.684765 0.127921 -0.717449
vn -0.630792 0.080079 -0.771809
vn -0.682352 -0.053080 -0.729094
vn 0.161897 0.287868 0.943886
vn -0.184326 0.465943 0.865403
vn -0.013489 0.351107 0.936238
vn 0.977946 0.205885 -0.035110
vn 0.988912 0.099551 -0.110193
vn 0.935212 0.343604 -0.085532
vn 0.957938 -0.026265 -0.285773
vn 0.850748 0.104379 -0.515104
vn -0.033383 -0.015460 -0.999323
vn -0.034745 0.007532 -0.999368
vn 0.123117 -0.073758 -0.989647
vn 0.082148 -0.994574 -0.063831
vn 0.051306 -0.998170 0.032013
vn -0.012717 -0.999888 -0.007840
vn -0.594290 0.227686 0.771348
vn -0.736888 0.122866 0.664756
vn -0.574211 0.311099 0.757297
vn 0.406859 0.794084 -0.451548
vn -0.146654 0.613463 -0.775987
vn -0.000433 0.903805 -0.427945
vn -0.395268 -0.911943 -0.110102
vn -0.044094 -0.563974 0.824614
vn -0.605728 -0.615261 0.504528
vn 0.050235 0.036787 0.998060
vn -0.363813 -0.141185 0.920710
vn 0.858570 0.410470 0.307200
vn 0.559252 0.339395 0.756339
vn 0.819912 -0.205163 0.534465
vn 0.566277 -0.479123 0.670650
vn 0.974037 -0.223121 0.038330
vn -0.212674 0.544204 -0.811549
vn -0.305268 0.570625 -0.762364
vn 0.063288 0.309575 -0.948767
vn 0.751415 -0.202752 -0.627907
vn 0.750482 -0.212855 -0.625675
vn 0.784958 -0.221581 -0.578570
vn 0.221661 -0.972289 -0.074303
vn 0.559735 -0.075774 -0.825200
vn 0.135781 -0.026189 -0.990393
vn -0.804806 0.173987 0.567464
vn 0.032435 0.300587 0.953203
vn -0.907189 -0.215931 0.361085
vn -0.980348 0.196311 0.019518
vn -0.895153 -0.369515 0.249319
vn -0.740378 0.662952 0.111062
vn -0.755560 0.642696 0.126771
vn 0.705163 -0.266141 0.657202
vn 0.678198 -0.370767 0.634492
vn -0.316977 0.166770 0.933656
vn -0.258577 0.695959 -0.669909
vn 0.289197 -0.082294 -0.953726
vn -0.871122 0.441917 -0.214139
vn -0.614016 0.325936 -0.718854
vn -0.907082 0.167070 -0.386381
vn -0.583219 0.120693 -0.803299
vn -0.986824 0.027670 -0.159417
vn -0.596579 -0.267846 -0.756539
vn -0.766313 -0.202313 -0.609781
vn -0.053492 0.977664 0.203253
vn -0.041717 0.861639 0.505804
vn 0.127127 0.940167 0.316107
vn 0.178426 0.550692 0.815415
vn -0.743401 -0.017884 -0.668607
vn 0.276905 -0.373415 0.885373
vn 0.992299 0.097798 0.076019
vn 0.831416 0.204478 0.516659
vn 0.706617 0.059357 0.705103
vn -0.808511 0.554296 0.197650
vn 0.466197 -0.873152 0.142360
vn 0.424231 -0.619101 0.660864
vn 0.908982 0.217733 -0.355448
vn -0.870974 0.152862 0.466944
vn -0.618830 0.546799 0.563968
vn -0.266792 0.621623 0.736483
vn -0.159508 0.822678 0.545672
vn 0.227693 -0.122062 -0.966052
vn 0.464612 -0.515329 -0.720120
vn 0.069957 0.657099 -0.750551
vn -0.108140 0.556087 -0.824059
vn -0.426469 0.725633 -0.539982
vn 0.068332 0.788274 0.611519
vn -0.018413 -0.999745 -0.013096
vn 0.405524 -0.873370 -0.269768
vn 0.945179 0.044955 -0.323443
vn 0.980543 0.027052 -0.194430
vn 0.802082 -0.082662 -0.591466
vn -0.883507 -0.320040 -0.342038
vn -0.067253 0.775662 0.627555
vn -0.399436 0.667919 0.627961
vn -0.802364 0.126467 -0.583282
vn 0.926179 0.062962 -0.371789
vn 0.932055 0.221447 -0.286767
vn 0.030273 0.992155 0.121293
vn 0.612716 0.580621 -0.536151
vn 0.739800 -0.327785 -0.587582
vn -0.255939 -0.275492 -0.926607
vn -0.042293 -0.638534 -0.768431
s 1
g rock_02_deci:Group10427
f 1/1/1 2/2/2 3/3/3
s off
f 1/1/4 3/3/3 2/2/2
s 2
f 2/2/2 3/3/3 4/4/5
f 2/2/2 4/4/5 52/5/6
s 1
f 4/4/5 3/3/3 2/2/2
s 2
f 4/4/5 2/2/2 87/6/7
f 4/4/5 87/6/7 25/7/8
f 2/2/2 52/5/6 87/6/7
f 25/7/8 52/5/6 4/4/5
f 18/8/9 15/9/10 50/10/11
f 8/11/12 72/12/13 10/13/14
f 9/14/15 68/15/16 59/16/17
f 39/17/18 70/18/19 86/19/20
f 69/20/21 42/21/22 50/10/11
f 10/96/23 72/106/24 5/101/25
f 73/22/26 30/23/27 23/103/28
f 11/25/29 32/26/30 16/27/31
f 24/28/32 6/104/33 34/108/34
f 23/24/35 12/29/36 17/30/37
f 76/31/38 46/32/39 12/29/36
f 39/17/18 37/33/40 28/34/41
f 26/35/42 64/36/43 27/37/44
f 14/97/45 22/98/46 53/40/47
f 75/41/48 47/42/49 31/43/50
f 38/44/51 15/9/10 18/8/9
f 81/45/52 5/101/25 85/46/53
f 74/47/54 16/27/31 32/26/30
f 59/16/17 43/48/55 9/14/15
f 49/49/56 7/50/57 67/51/58
f 91/52/59 7/50/57 19/53/60
f 23/24/35 30/23/27 12/29/36
f 57/54/61 12/29/36 80/55/62
f 7/50/57 49/49/56 19/53/60
f 76/31/38 83/56/63 46/32/39
f 22/98/46 77/107/64 6/104/33
f 74/47/54 32/26/30 87/6/7
f 72/106/24 53/40/47 21/109/65
f 72/106/24 85/46/53 5/101/25
f 63/58/66 66/59/67 45/60/68
f 66/59/67 14/38/69 8/11/12
f 52/5/6 78/61/70 67/51/58
f 56/62/71 88/63/72 10/13/14
f 71/99/73 92/100/74 60/66/75
f 28/34/41 37/33/40 41/67/76
f 58/68/77 8/11/12 10/13/14
f 88/63/72 58/68/77 10/13/14
f 84/69/78 64/36/43 26/35/42
f 9/14/15 28/34/41 68/15/16
f 97/70/79 26/35/42 27/37/44
f 42/21/22 75/41/48 50/10/11
f 35/71/80 89/72/81 97/70/79
f 89/72/81 35/71/80 9/14/15
f 7/50/57 91/52/59 29/73/82
f 67/51/58 7/50/57 52/5/6
f 30/23/27 38/44/51 61/74/83
f 84/69/78 95/75/84 64/36/43
f 31/43/50 21/109/65 53/40/47
f 51/76/85 86/19/20 70/18/19
f 87/6/7 55/77/86 63/58/66
f 96/78/87 82/79/88 48/80/89
f 93/102/90 5/101/25 54/82/91
f 10/96/23 5/101/25 93/102/90
f 34/108/34 71/99/73 60/66/75
f 77/57/92 22/39/93 20/83/94
f 28/34/41 35/71/80 39/17/18
f 28/34/41 9/14/15 35/71/80
f 54/82/91 5/101/25 81/45/52
f 15/9/10 69/20/21 50/10/11
f 92/65/95 37/33/40 60/66/75
f 37/33/40 39/17/18 86/19/20
f 23/103/28 56/105/96 73/22/26
f 73/22/26 33/110/97 54/82/91
f 13/85/98 70/18/19 39/17/18
f 44/86/99 27/37/44 79/87/100
f 40/88/101 56/62/71 23/24/35
f 67/51/58 78/61/70 40/88/101
f 28/34/41 41/67/76 68/15/16
f 68/15/16 92/65/95 99/89/102
f 81/45/52 21/109/65 47/42/49
f 47/42/49 21/109/65 31/43/50
f 83/56/63 62/90/103 19/53/60
f 83/56/63 19/53/60 49/49/56
f 35/71/80 97/70/79 39/17/18
f 97/70/79 13/85/98 39/17/18
f 66/59/67 98/91/104 45/60/68
f 25/7/8 45/60/68 98/91/104
f 12/29/36 46/32/39 17/30/37
f 17/30/37 49/49/56 67/51/58
f 90/92/105 47/42/49 75/41/48
f 47/42/49 90/92/105 36/93/106
f 20/83/94 96/78/87 48/80/89
f 77/57/92 20/83/94 71/64/107
f 49/49/56 17/30/37 46/32/39
f 49/49/56 46/32/39 83/56/63
f 50/10/11 27/37/44 18/8/9
f 50/10/11 79/87/100 27/37/44
f 53/40/47 51/76/85 31/43/50
f 94/94/108 6/104/33 24/28/32
f 74/47/54 87/6/7 52/5/6
f 7/50/57 29/73/82 52/5/6
f 22/98/46 6/104/33 53/40/47
f 53/40/47 6/104/33 94/94/108
f 54/82/91 65/95/109 15/9/10
f 54/82/91 15/9/10 38/44/51
f 32/26/30 55/77/86 87/6/7
f 32/26/30 11/25/29 55/77/86
f 10/13/14 93/81/110 56/62/71
f 56/105/96 33/110/97 73/22/26
f 57/54/61 76/31/38 12/29/36
f 84/69/78 89/72/81 76/31/38
f 78/61/70 98/91/104 58/68/77
f 78/61/70 58/68/77 88/63/72
f 68/15/16 16/27/31 59/16/17
f 29/73/82 91/52/59 16/27/31
f 34/108/34 60/66/75 24/28/32
f 37/33/40 86/19/20 60/66/75
f 61/74/83 18/8/9 27/37/44
f 61/74/83 38/44/51 18/8/9
f 43/48/55 59/16/17 62/90/103
f 59/16/17 16/27/31 62/90/103
f 20/83/94 66/59/67 63/58/66
f 20/83/94 63/58/66 96/78/87
f 61/74/83 27/37/44 64/36/43
f 64/36/43 95/75/84 61/74/83
f 81/45/52 65/95/109 54/82/91
f 69/20/21 36/93/106 90/92/105
f 66/59/67 20/83/94 22/39/93
f 22/39/93 14/38/69 66/59/67
f 67/51/58 40/88/101 23/24/35
f 17/30/37 67/51/58 23/24/35
f 68/15/16 99/89/102 82/79/88
f 16/27/31 68/15/16 11/25/29
f 36/93/106 69/20/21 65/95/109
f 69/20/21 15/9/10 65/95/109
f 51/76/85 70/18/19 31/43/50
f 31/43/50 70/18/19 75/41/48
f 20/83/94 48/80/89 71/64/107
f 48/80/89 82/79/88 99/89/102
f 53/40/47 72/106/24 14/97/45
f 72/12/13 8/11/12 14/38/69
f 73/22/26 38/44/51 30/23/27
f 73/22/26 54/82/91 38/44/51
f 74/47/54 52/5/6 29/73/82
f 29/73/82 16/27/31 74/47/54
f 70/18/19 13/85/98 75/41/48
f 50/10/11 75/41/48 79/87/100
f 9/14/15 76/31/38 89/72/81
f 9/14/15 43/48/55 76/31/38
f 34/108/34 6/104/33 77/107/64
f 34/108/34 77/107/64 71/99/73
f 78/61/70 25/7/8 98/91/104
f 25/7/8 78/61/70 52/5/6
f 75/41/48 13/85/98 79/87/100
f 79/87/100 13/85/98 44/86/99
f 95/75/84 30/23/27 61/74/83
f 30/23/27 95/75/84 12/29/36
f 81/45/52 47/42/49 36/93/106
f 81/45/52 36/93/106 65/95/109
f 82/79/88 96/78/87 11/25/29
f 82/79/88 11/25/29 68/15/16
f 83/56/63 43/48/55 62/90/103
f 76/31/38 43/48/55 83/56/63
f 76/31/38 57/54/61 84/69/78
f 57/54/61 80/55/62 84/69/78
f 81/45/52 85/46/53 21/109/65
f 72/106/24 21/109/65 85/46/53
f 86/19/20 94/94/108 24/28/32
f 86/19/20 24/28/32 60/66/75
f 87/6/7 45/60/68 25/7/8
f 63/58/66 45/60/68 87/6/7
f 88/63/72 56/62/71 40/88/101
f 78/61/70 88/63/72 40/88/101
f 26/35/42 89/72/81 84/69/78
f 26/35/42 97/70/79 89/72/81
f 90/92/105 42/21/22 69/20/21
f 90/92/105 75/41/48 42/21/22
f 16/27/31 91/52/59 62/90/103
f 62/90/103 91/52/59 19/53/60
f 41/67/76 37/33/40 92/65/95
f 68/15/16 41/67/76 92/65/95
f 93/102/90 54/82/91 33/110/97
f 93/81/110 33/84/111 56/62/71
f 51/76/85 94/94/108 86/19/20
f 51/76/85 53/40/47 94/94/108
f 84/69/78 80/55/62 95/75/84
f 12/29/36 95/75/84 80/55/62
f 63/58/66 55/77/86 96/78/87
f 96/78/87 55/77/86 11/25/29
f 97/70/79 27/37/44 44/86/99
f 13/85/98 97/70/79 44/86/99
f 98/91/104 8/11/12 58/68/77
f 98/91/104 66/59/67 8/11/12
f 71/64/107 99/89/102 92/65/95
f 71/64/107 48/80/89 99/89/102
