# This file uses centimeters as units for non-parametric coordinates.

g default
v 4.895737 22.746828 -1.532313
v -2.103316 23.120415 -5.575283
v 4.924422 4.893340 -6.194458
v -2.393640 12.747899 -5.617654
v -1.293957 11.946255 8.217946
v -4.484747 6.779616 7.288427
v 3.586924 20.947887 3.929618
v -4.822668 4.768474 -1.377312
v 3.899616 21.244150 -5.242376
v 4.378369 4.357022 8.814590
v 1.358270 29.819189 -1.649792
v 6.591238 0.465706 5.736406
v 4.764062 10.907594 -1.034066
v -2.450275 28.085945 -2.972761
v 7.249804 2.625143 4.637396
v -1.063532 6.919685 9.088733
v -3.223206 20.555882 -2.654858
v 4.128933 0.154025 -4.472294
v -1.294634 16.850979 7.594637
v 4.442621 14.639669 -4.396098
v -4.290573 13.930389 5.300879
v 7.388567 0.596929 -0.251252
v -0.863211 28.972599 0.831469
v -2.582082 0.906420 -6.986464
v 3.252107 11.574102 8.083783
v -1.276027 7.180760 -6.939928
v 2.197912 18.498102 8.605799
v 6.153259 1.701509 -3.601764
v 0.407553 19.913279 -6.749886
v -0.509891 1.175876 9.715048
v 1.578050 28.033106 -4.565678
v -5.542818 9.927005 2.327426
v 6.723277 9.385123 -0.974281
v -4.898786 12.576303 -2.547032
v 6.149790 13.465024 0.242453
v -2.500985 0.522357 7.101473
v -2.333382 26.531542 2.208245
v 6.316077 16.269167 -0.958451
v -4.811439 1.772246 -4.224729
v 6.861414 8.214308 1.252303
v -4.760188 3.329664 -5.913970
v 2.137348 14.080134 9.256693
v 8.676767 3.703939 0.598055
v -3.511931 7.274357 -5.649058
v 2.167124 26.557951 2.158134
v -4.178843 2.009388 9.329007
v 5.336261 10.047681 -3.358948
v -1.381209 30.331663 -3.548959
v -0.916404 3.520557 9.924325
v -0.577862 23.168875 5.307792
v 1.539832 12.254852 -6.843344
v -0.162935 0.410679 6.344332
v 5.194211 8.249357 4.190401
v -3.108329 22.152660 4.870752
v 3.772790 25.074825 -4.382186
v 3.214553 1.008137 -7.092419
v 2.333083 1.024930 8.632670
v 5.280483 15.761838 1.933542
v 0.524667 25.681377 -6.078232
v -3.912051 1.167066 2.505084
v 3.130203 14.711273 -6.326582
v 3.753080 7.552724 8.457733
v 3.783299 27.281569 -0.412496
v -3.460870 0.916287 -0.953561
v -3.842398 14.417814 -4.447750
v 0.995122 24.030527 4.435253
v 0.493522 11.650525 8.742213
v -2.431729 18.242012 -5.212022
v -2.022445 -0.064497 -5.003909
v 5.844816 19.809778 0.967694
v -4.914329 14.241638 0.956967
v 8.383224 4.387233 2.433358
v -3.775595 0.417690 -4.924598
v 4.896306 18.249805 3.088291
vt 0.682083 0.769604
vt 0.606920 0.578016
vt 0.701933 0.561419
vt 0.549086 0.104937
vt 0.805284 0.161279
vt 0.728968 0.208447
vt 0.849761 0.456270
vt 0.754026 0.488199
vt 0.106523 0.388799
vt 0.049340 0.608181
vt 0.000567 0.385690
vt 0.406755 0.725967
vt 0.261097 0.810621
vt 0.224515 0.592704
vt 0.198073 0.002709
vt 0.437490 0.272264
vt 0.400903 0.406045
vt 0.325313 0.320024
vt 0.568240 0.187173
vt 0.637835 0.210829
vt 0.588573 0.252048
vt 0.531154 0.647121
vt 0.411173 0.828770
vt 0.504321 0.282336
vt 0.582695 0.302956
vt 0.520138 0.370611
vt 0.374544 0.137870
vt 0.494686 0.196299
vt 0.261757 0.193700
vt 0.149329 0.683235
vt 0.140820 0.542649
vt 0.257589 0.890386
vt 0.655925 0.326096
vt 0.574662 0.375189
vt 0.818604 0.823465
vt 0.356161 0.938592
vt 0.746070 0.649741
vt 0.658435 0.238521
vt 0.720574 0.251267
vt 0.851101 0.241960
vt 0.813923 0.356057
vt 0.654957 0.519579
vt 0.688685 0.471453
vt 0.105747 0.786753
vt 0.789200 0.204375
vt 0.484270 0.373038
vt 0.499721 0.152304
vt 0.424725 0.590326
vt 0.302872 0.418806
vt 0.212102 0.379914
vt 0.134307 0.236301
vt 0.059895 0.228956
vt 0.848913 0.163657
vt 0.543719 0.416600
vt 0.475603 0.466415
vt 0.162276 0.133428
vt 0.542864 0.493055
vt 0.118600 0.051182
vt 0.488636 0.614631
vt 0.520670 0.225858
vt 0.530299 0.188404
vt 0.775418 0.381610
vt 0.162225 0.432025
vt 0.732710 0.427016
vt 0.758912 0.344872
vt 0.298098 0.092769
vt 0.716354 0.325177
vt 0.696487 0.261725
vt 0.206800 0.104803
vt 0.191874 0.058907
vt 0.825384 0.941807
vt 0.900456 0.780215
vt 0.997599 0.236802
vt 0.923750 0.069493
vt 0.607032 0.908819
vt 0.725682 0.880587
vt 0.809924 0.724443
vt 0.851947 0.627653
vt 0.964478 0.614816
vt 0.955521 0.393148
vt 0.910294 0.456936
vt 0.574847 0.757888
vt 0.846637 0.040708
vn 0.837656 0.510479 0.194280
vn 0.780239 0.375152 0.500488
vn 0.937978 0.234881 0.255005
vn -0.001713 -0.998305 0.058178
vn 0.122306 -0.991055 -0.053389
vn 0.333552 -0.942459 -0.022684
vn 0.887468 -0.039794 -0.459149
vn 0.714671 0.122650 -0.688624
vn 0.961689 -0.007878 -0.274029
vn -0.482512 0.066838 -0.873336
vn -0.374243 0.018471 -0.927147
vn -0.291539 0.048976 -0.955304
vn -0.895687 0.334240 0.293308
vn -0.968995 0.224137 -0.103978
vn -0.979229 0.171004 -0.108938
vn 0.031144 -0.997509 -0.063297
vn -0.802518 0.160253 0.574703
vn -0.866099 0.152857 0.475928
vn -0.998731 -0.020338 0.046082
vn 0.253215 -0.671401 0.696493
vn 0.364648 -0.899880 0.239267
vn 0.543845 0.016042 0.839032
vn 0.375624 0.563365 0.735885
vn -0.419206 0.742270 0.522782
vn -0.167404 0.180543 0.969216
vn 0.624255 0.199678 0.755271
vn 0.007546 0.018584 0.999799
vn -0.902996 -0.429232 0.018920
vn -0.894769 -0.237232 0.378298
vn -0.995095 -0.086627 -0.047772
vn -0.700231 0.116655 -0.704321
vn -0.878012 0.124249 -0.462231
vn 0.567293 0.065882 -0.820876
vn 0.349903 0.102110 -0.931204
vn -0.704480 0.676251 -0.215390
vn 0.887575 0.215338 0.407235
vn 0.837386 0.085387 0.539901
vn 0.523555 0.583733 -0.620601
vn 0.341617 0.711452 -0.614112
vn 0.615448 0.788176 -0.001387
vn 0.957403 0.208565 -0.199699
vn 0.799451 0.314057 -0.512101
vn 0.921161 0.053076 0.385546
vn 0.974358 -0.011738 -0.224696
vn 0.627767 0.081002 -0.774175
vn 0.907171 0.198493 -0.371000
vn 0.904177 0.111644 0.412310
vn 0.923550 0.046990 0.380588
vn 0.385749 0.252623 -0.887344
vn 0.822685 -0.255615 -0.507789
vn -0.511022 0.160106 0.844525
vn -0.293753 -0.949593 0.109462
vn -0.896988 0.288899 0.334589
vn -0.981162 0.193094 -0.005986
vn -0.959568 0.081509 -0.269417
vn -0.838970 0.102611 -0.534415
vn 0.080047 0.007910 -0.996760
vn 0.232536 -0.305746 -0.923280
vn 0.092651 0.067213 0.993428
vn -0.530998 0.179983 0.828038
vn 0.197290 0.007042 -0.980320
vn -0.029108 0.953703 0.299337
vn 0.503040 0.547564 0.668674
vn -0.793789 0.112308 -0.597734
vn -0.402578 0.139730 -0.904658
vn 0.516547 0.294730 0.803936
vn -0.013162 -0.256618 -0.966423
vn -0.167275 0.546703 0.820448
vn -0.404571 0.241958 -0.881918
vn 0.021568 0.100613 0.994692
vn 0.040103 -0.653836 0.755573
vn 0.892611 0.174706 -0.415600
vn -0.835434 0.094439 -0.541416
vn 0.998424 0.050362 -0.024747
vn 0.910437 0.271420 -0.312145
vn -0.388251 -0.918919 0.069635
vn -0.315102 -0.948678 0.026851
vn -0.513244 -0.188226 -0.837348
vn 0.888441 0.260479 0.377920
vn 0.873046 0.286763 0.394409
vn -0.964114 -0.265231 0.011730
vn -0.602904 -0.781121 -0.162350
vn 0.347625 0.747359 0.566225
s 1
g rock_06_DECI1:Group63199
f 63/1/1 7/2/2 70/3/3
f 52/4/4 18/5/5 22/6/6
f 20/7/7 9/78/8 38/8/9
f 4/9/10 29/10/11 51/11/12
f 37/12/13 14/13/14 17/14/15
f 69/83/16 18/5/5 52/4/4
f 6/16/17 21/17/18 32/18/19
f 57/19/20 12/20/21 10/21/22
f 66/22/23 23/23/24 37/12/13
f 16/24/25 62/25/26 67/26/27
f 60/27/28 46/28/29 8/29/30
f 17/14/15 2/30/31 68/31/32
f 61/81/33 29/79/34 9/78/8
f 37/12/13 23/23/24 48/32/35
f 53/33/36 25/34/37 62/25/26
f 25/34/37 67/26/27 62/25/26
f 31/35/38 48/71/39 11/76/40
f 1/37/41 55/77/42 63/1/1
f 53/33/36 62/25/26 15/38/43
f 43/39/44 3/40/45 47/41/46
f 74/42/47 25/34/37 58/43/48
f 9/78/8 1/37/41 38/8/9
f 2/30/31 17/14/15 14/13/14
f 59/72/49 48/71/39 31/35/38
f 15/38/43 10/21/22 12/20/21
f 28/45/50 43/39/44 22/6/6
f 16/24/25 5/46/51 6/16/17
f 60/27/28 36/47/52 46/28/29
f 54/48/53 17/14/15 71/49/54
f 8/29/30 34/50/55 44/51/56
f 3/40/45 43/39/44 28/45/50
f 26/73/57 3/40/45 56/53/58
f 42/54/59 19/55/60 5/46/51
f 6/16/17 5/46/51 21/17/18
f 26/73/57 51/80/61 3/40/45
f 47/41/46 3/40/45 61/81/33
f 21/17/18 5/46/51 19/55/60
f 21/17/18 54/48/53 32/18/19
f 52/4/4 22/6/6 12/20/21
f 22/6/6 15/38/43 12/20/21
f 23/23/24 11/36/62 48/32/35
f 66/22/23 45/82/63 23/23/24
f 44/51/56 41/56/64 8/29/30
f 26/52/65 4/9/10 51/11/12
f 27/57/66 25/34/37 74/42/47
f 25/34/37 42/54/59 67/26/27
f 41/56/64 44/51/56 26/52/65
f 24/74/67 26/73/57 56/53/58
f 7/2/2 27/57/66 74/42/47
f 54/48/53 27/57/66 50/59/68
f 18/5/5 28/45/50 22/6/6
f 56/53/58 18/5/5 69/83/16
f 2/30/31 29/10/11 4/9/10
f 48/32/35 59/44/69 2/30/31
f 49/60/70 46/28/29 30/61/71
f 10/21/22 49/60/70 57/19/20
f 59/72/49 31/35/38 55/77/42
f 55/77/42 31/35/38 63/1/1
f 34/50/55 8/29/30 32/18/19
f 32/18/19 8/29/30 46/28/29
f 20/7/7 13/62/72 47/41/46
f 25/34/37 53/33/36 58/43/48
f 17/14/15 65/63/73 34/50/55
f 71/49/54 17/14/15 34/50/55
f 13/62/72 35/64/74 33/65/75
f 20/7/7 38/8/9 13/62/72
f 36/47/52 30/61/71 46/28/29
f 12/20/21 57/19/20 52/4/4
f 27/57/66 54/48/53 19/55/60
f 19/55/60 54/48/53 21/17/18
f 70/3/3 35/64/74 38/8/9
f 35/64/74 13/62/72 38/8/9
f 64/66/76 69/15/77 52/4/4
f 26/52/65 24/58/78 41/56/64
f 33/65/75 40/67/79 72/68/80
f 40/67/79 33/65/75 35/64/74
f 39/69/81 41/56/64 73/70/82
f 8/29/30 41/56/64 39/69/81
f 42/54/59 25/34/37 27/57/66
f 42/54/59 27/57/66 19/55/60
f 43/39/44 15/38/43 22/6/6
f 40/67/79 15/38/43 72/68/80
f 4/9/10 44/51/56 34/50/55
f 44/51/56 4/9/10 26/52/65
f 23/75/83 45/82/63 11/76/40
f 63/1/1 31/35/38 11/76/40
f 32/18/19 46/28/29 6/16/17
f 46/28/29 16/24/25 6/16/17
f 43/39/44 47/41/46 33/65/75
f 33/65/75 47/41/46 13/62/72
f 14/13/14 37/12/13 48/32/35
f 14/13/14 48/32/35 2/30/31
f 10/21/22 16/24/25 49/60/70
f 16/24/25 46/28/29 49/60/70
f 66/22/23 7/2/2 45/82/63
f 66/22/23 27/57/66 7/2/2
f 9/78/8 20/7/7 61/81/33
f 47/41/46 61/81/33 20/7/7
f 52/4/4 30/61/71 36/47/52
f 64/66/76 52/4/4 36/47/52
f 53/33/36 40/67/79 58/43/48
f 40/67/79 53/33/36 15/38/43
f 50/59/68 37/12/13 54/48/53
f 37/12/13 17/14/15 54/48/53
f 55/77/42 1/37/41 9/78/8
f 59/72/49 55/77/42 9/78/8
f 56/53/58 3/40/45 28/45/50
f 28/45/50 18/5/5 56/53/58
f 57/19/20 49/60/70 30/61/71
f 30/61/71 52/4/4 57/19/20
f 58/43/48 35/64/74 70/3/3
f 58/43/48 40/67/79 35/64/74
f 9/78/8 29/79/34 59/72/49
f 2/30/31 59/44/69 29/10/11
f 8/29/30 39/69/81 60/27/28
f 39/69/81 73/70/82 64/66/76
f 51/80/61 61/81/33 3/40/45
f 29/79/34 61/81/33 51/80/61
f 15/38/43 62/25/26 10/21/22
f 62/25/26 16/24/25 10/21/22
f 45/82/63 7/2/2 63/1/1
f 63/1/1 11/76/40 45/82/63
f 39/69/81 64/66/76 60/27/28
f 64/66/76 36/47/52 60/27/28
f 34/50/55 65/63/73 4/9/10
f 68/31/32 2/30/31 4/9/10
f 50/59/68 66/22/23 37/12/13
f 66/22/23 50/59/68 27/57/66
f 67/26/27 5/46/51 16/24/25
f 42/54/59 5/46/51 67/26/27
f 4/9/10 65/63/73 68/31/32
f 17/14/15 68/31/32 65/63/73
f 24/74/67 56/53/58 69/83/16
f 41/56/64 24/58/78 73/70/82
f 1/37/41 70/3/3 38/8/9
f 1/37/41 63/1/1 70/3/3
f 71/49/54 34/50/55 32/18/19
f 54/48/53 71/49/54 32/18/19
f 72/68/80 15/38/43 43/39/44
f 72/68/80 43/39/44 33/65/75
f 73/70/82 24/58/78 69/15/77
f 64/66/76 73/70/82 69/15/77
f 70/3/3 7/2/2 74/42/47
f 74/42/47 58/43/48 70/3/3
